<svg width="18" height="14" viewBox="0 0 18 14" fill="none" xmlns="http://www.w3.org/2000/svg">
<path d="M17.462 3.15629L15.4266 9.68188C15.2745 10.1466 14.875 10.4564 14.3995 10.4564H6.54348C6.08696 10.4564 5.64946 10.166 5.49728 9.73997L2.49185 1.5491H0.76087C0.342391 1.5491 0 1.20055 0 0.77455C0 0.348548 0.342391 0 0.76087 0H3.02446C3.34783 0 3.63315 0.213001 3.74728 0.522821L6.84783 8.90733H14.0761L15.6929 3.67911H6.7337C6.31522 3.67911 5.97283 3.33057 5.97283 2.90456C5.97283 2.47856 6.31522 2.13001 6.7337 2.13001H16.7391C16.9864 2.13001 17.2147 2.26556 17.3478 2.4592C17.5 2.65284 17.538 2.92393 17.462 3.15629ZM6.92391 11.4827C6.60054 11.4827 6.27717 11.6183 6.04891 11.8506C5.82065 12.083 5.6875 12.4122 5.6875 12.7414C5.6875 13.0705 5.82065 13.3997 6.04891 13.6321C6.27717 13.8645 6.60054 14 6.92391 14C7.24728 14 7.57065 13.8645 7.79891 13.6321C8.02717 13.3997 8.16033 13.0705 8.16033 12.7414C8.16033 12.4122 8.02717 12.083 7.79891 11.8506C7.57065 11.6183 7.24728 11.4827 6.92391 11.4827ZM13.7527 11.4827C13.4293 11.4827 13.106 11.6183 12.8777 11.8506C12.6495 12.083 12.5163 12.4122 12.5163 12.7414C12.5163 13.0705 12.6495 13.3997 12.8777 13.6321C13.106 13.8645 13.4293 14 13.7527 14C14.0761 14 14.3995 13.8645 14.6277 13.6321C14.856 13.3997 14.9891 13.0705 14.9891 12.7414C14.9891 12.4122 14.856 12.083 14.6277 11.8506C14.3995 11.6183 14.0761 11.4827 13.7527 11.4827Z" fill="white"/>
</svg>
