<svg width="20" height="16" viewBox="0 0 20 16" fill="none" xmlns="http://www.w3.org/2000/svg">
<path d="M19.9565 3.60719L17.6304 11.065C17.4565 11.5961 17 11.9502 16.4565 11.9502H7.47826C6.95652 11.9502 6.45652 11.6183 6.28261 11.1314L2.84783 1.7704H0.869565C0.391304 1.7704 0 1.37206 0 0.885201C0 0.39834 0.391304 0 0.869565 0H3.45652C3.82609 0 4.15217 0.24343 4.28261 0.59751L7.82609 10.1798H16.087L17.9348 4.2047H7.69565C7.21739 4.2047 6.82609 3.80636 6.82609 3.3195C6.82609 2.83264 7.21739 2.4343 7.69565 2.4343H19.1304C19.413 2.4343 19.6739 2.58921 19.8261 2.81051C20 3.03181 20.0435 3.34163 19.9565 3.60719ZM7.91304 13.1231C7.54348 13.1231 7.17391 13.278 6.91304 13.5436C6.65217 13.8091 6.5 14.1853 6.5 14.5615C6.5 14.9378 6.65217 15.314 6.91304 15.5795C7.17391 15.8451 7.54348 16 7.91304 16C8.28261 16 8.65217 15.8451 8.91304 15.5795C9.17391 15.314 9.32609 14.9378 9.32609 14.5615C9.32609 14.1853 9.17391 13.8091 8.91304 13.5436C8.65217 13.278 8.28261 13.1231 7.91304 13.1231ZM15.7174 13.1231C15.3478 13.1231 14.9783 13.278 14.7174 13.5436C14.4565 13.8091 14.3043 14.1853 14.3043 14.5615C14.3043 14.9378 14.4565 15.314 14.7174 15.5795C14.9783 15.8451 15.3478 16 15.7174 16C16.087 16 16.4565 15.8451 16.7174 15.5795C16.9783 15.314 17.1304 14.9378 17.1304 14.5615C17.1304 14.1853 16.9783 13.8091 16.7174 13.5436C16.4565 13.278 16.087 13.1231 15.7174 13.1231Z" fill="#151515"/>
</svg>
