<svg width="13" height="15" viewBox="0 0 13 15" fill="none" xmlns="http://www.w3.org/2000/svg">
<path d="M4.04688 8.625C4.21094 8.625 4.375 8.48828 4.375 8.29688V7.20312C4.375 7.03906 4.21094 6.875 4.04688 6.875H2.95312C2.76172 6.875 2.625 7.03906 2.625 7.20312V8.29688C2.625 8.48828 2.76172 8.625 2.95312 8.625H4.04688ZM7 8.29688V7.20312C7 7.03906 6.83594 6.875 6.67188 6.875H5.57812C5.38672 6.875 5.25 7.03906 5.25 7.20312V8.29688C5.25 8.48828 5.38672 8.625 5.57812 8.625H6.67188C6.83594 8.625 7 8.48828 7 8.29688ZM9.625 8.29688V7.20312C9.625 7.03906 9.46094 6.875 9.29688 6.875H8.20312C8.01172 6.875 7.875 7.03906 7.875 7.20312V8.29688C7.875 8.48828 8.01172 8.625 8.20312 8.625H9.29688C9.46094 8.625 9.625 8.48828 9.625 8.29688ZM7 10.9219V9.82812C7 9.66406 6.83594 9.5 6.67188 9.5H5.57812C5.38672 9.5 5.25 9.66406 5.25 9.82812V10.9219C5.25 11.1133 5.38672 11.25 5.57812 11.25H6.67188C6.83594 11.25 7 11.1133 7 10.9219ZM4.375 10.9219V9.82812C4.375 9.66406 4.21094 9.5 4.04688 9.5H2.95312C2.76172 9.5 2.625 9.66406 2.625 9.82812V10.9219C2.625 11.1133 2.76172 11.25 2.95312 11.25H4.04688C4.21094 11.25 4.375 11.1133 4.375 10.9219ZM9.625 10.9219V9.82812C9.625 9.66406 9.46094 9.5 9.29688 9.5H8.20312C8.01172 9.5 7.875 9.66406 7.875 9.82812V10.9219C7.875 11.1133 8.01172 11.25 8.20312 11.25H9.29688C9.46094 11.25 9.625 11.1133 9.625 10.9219ZM12.25 3.8125C12.25 3.10156 11.6484 2.5 10.9375 2.5H9.625V1.07812C9.625 0.914062 9.46094 0.75 9.29688 0.75H8.20312C8.01172 0.75 7.875 0.914062 7.875 1.07812V2.5H4.375V1.07812C4.375 0.914062 4.21094 0.75 4.04688 0.75H2.95312C2.76172 0.75 2.625 0.914062 2.625 1.07812V2.5H1.3125C0.574219 2.5 0 3.10156 0 3.8125V13.4375C0 14.1758 0.574219 14.75 1.3125 14.75H10.9375C11.6484 14.75 12.25 14.1758 12.25 13.4375V3.8125ZM10.9375 13.2734C10.9375 13.3828 10.8555 13.4375 10.7734 13.4375H1.47656C1.36719 13.4375 1.3125 13.3828 1.3125 13.2734V5.125H10.9375V13.2734Z" fill="white"/>
</svg>
