<svg width="18" height="18" viewBox="0 0 18 18" fill="none" xmlns="http://www.w3.org/2000/svg">
<g clip-path="url(#clip0_138_2417)">
<path d="M9 1.5C7.51664 1.5 6.0666 1.93987 4.83323 2.76398C3.59986 3.58809 2.63856 4.75943 2.07091 6.12987C1.50325 7.50032 1.35472 9.00832 1.64411 10.4632C1.9335 11.918 2.64781 13.2544 3.6967 14.3033C4.7456 15.3522 6.08197 16.0665 7.53683 16.3559C8.99168 16.6453 10.4997 16.4968 11.8701 15.9291C13.2406 15.3614 14.4119 14.4001 15.236 13.1668C16.0601 11.9334 16.5 10.4834 16.5 9C16.5 8.01509 16.306 7.03982 15.9291 6.12987C15.5522 5.21993 14.9997 4.39314 14.3033 3.6967C13.6069 3.00026 12.7801 2.44781 11.8701 2.0709C10.9602 1.69399 9.98492 1.5 9 1.5ZM11.25 9.75H6.75C6.55109 9.75 6.36033 9.67098 6.21967 9.53033C6.07902 9.38968 6 9.19891 6 9C6 8.80109 6.07902 8.61032 6.21967 8.46967C6.36033 8.32902 6.55109 8.25 6.75 8.25H11.25C11.4489 8.25 11.6397 8.32902 11.7803 8.46967C11.921 8.61032 12 8.80109 12 9C12 9.19891 11.921 9.38968 11.7803 9.53033C11.6397 9.67098 11.4489 9.75 11.25 9.75Z" fill="#FDE0D6"/>
</g>
<defs>
<clipPath id="clip0_138_2417">
<rect width="18" height="18" fill="white"/>
</clipPath>
</defs>
</svg>
