<svg width="19" height="20" viewBox="0 0 19 20" fill="none" xmlns="http://www.w3.org/2000/svg">
<path d="M18.1667 2.88889L15.4444 0.166667C15.3333 0.0555557 15.1944 0 15.0556 0H0.555556C0.25 0 0 0.25 0 0.555556V19.4444C0 19.75 0.25 20 0.555556 20H17.7778C18.0833 20 18.3333 19.75 18.3333 19.4444V3.30556C18.3333 3.13889 18.2778 3 18.1667 2.88889ZM3.88889 1.13889H14.4444V10.0278H3.88889V1.13889ZM17.2222 18.9167H1.11111V1.13889H2.77778V10.5833C2.77778 10.8889 3.02778 11.1389 3.33333 11.1389H15C15.3056 11.1389 15.5556 10.8889 15.5556 10.5833V1.86111L17.2222 3.52778V18.9167ZM13.2778 2.94444V8.22222C13.2778 8.52778 13.0278 8.77778 12.7222 8.77778C12.4167 8.77778 12.1667 8.52778 12.1667 8.22222V2.94444C12.1667 2.63889 12.4167 2.38889 12.7222 2.38889C13.0278 2.38889 13.2778 2.63889 13.2778 2.94444Z" fill="#F36633"/>
</svg>
